<svg xmlns="http://www.w3.org/2000/svg" width="536" height="459.57" viewBox="0 0 536 459.57">
  <g id="Group_768" data-name="Group 768" transform="translate(-21.713 -55.354)">
    <g id="Group_623" data-name="Group 623" transform="translate(36.797 72.772)">
      <g id="Group_622" data-name="Group 622">
        <path id="Path_35" data-name="Path 35" d="M256.919,153.727c-17.9-64.938-98.568-85.857-144.8-37.325q-1,1.045-1.991,2.126C43.854,190.574,75.163,368.119,213.483,413.119s282.192-37.175,290.274-110.633-55.731-96.539-154.763-76C293.042,238.093,268.063,194.153,256.919,153.727Z" transform="translate(-27.808 -67.15)" fill="#cce1f7"/>
        <path id="Path_36" data-name="Path 36" d="M354.037,157.88c-18.507,3.012-23.635,19.409-9.347,31.04,4.723,3.845,11.469,7.039,21.077,8.632,36.6,6.073,56.028-10.122,41.355-31.12C398.066,153.474,372.376,154.894,354.037,157.88Z" transform="translate(14.631 -56.351)" fill="#cce1f7"/>
        <path id="Path_37" data-name="Path 37" d="M66.962,253.093c-11.5-14.805-28.355-11.458-31.727,6.656-1.115,5.987-.689,13.438,2.512,22.637,12.192,35.044,35.71,44.343,47.121,21.409C91.91,289.64,78.364,267.766,66.962,253.093Z" transform="translate(-34.679 -41.983)" fill="#cce1f7"/>
        <path id="Path_38" data-name="Path 38" d="M287.643,135.542l1.923-9.8-9.185-1.8a22.407,22.407,0,0,0-1.216-7.175l7.568-5.084-5.571-8.293-7.243,4.866a22.368,22.368,0,0,0-7.435-5l1.8-9.186-9.8-1.923-1.858,9.468a22.222,22.222,0,0,0-5.964,1.161l-5.085-7.57-8.291,5.571,4.866,7.243a22.361,22.361,0,0,0-5,7.436l-8.03-1.578-1.925,9.8,8.312,1.631a22.272,22.272,0,0,0,1.766,7.564l-7.246,4.866,5.571,8.293,7.569-5.084a22.354,22.354,0,0,0,7.3,4.242l-1.816,9.242,9.8,1.923,1.967-10.018a22.248,22.248,0,0,0,6.345-1.674l4.866,7.244,8.292-5.57-5.084-7.568a22.316,22.316,0,0,0,3.331-5.084Zm-24.621-3.926a9.156,9.156,0,1,1,2.494-12.707A9.166,9.166,0,0,1,263.022,131.615Z" transform="translate(-3.224 -66.762)" fill="#cce1f7"/>
        <path id="Path_39" data-name="Path 39" d="M236.172,94.045l1.051-5.357L232.2,87.7a12.245,12.245,0,0,0-.664-3.921L235.676,81l-3.045-4.531-3.958,2.66A12.222,12.222,0,0,0,224.61,76.4l.985-5.02-5.357-1.051L219.222,75.5a12.166,12.166,0,0,0-3.259.634L213.184,72l-4.531,3.045L211.312,79a12.222,12.222,0,0,0-2.734,4.064L204.19,82.2l-1.052,5.357,4.543.891a12.181,12.181,0,0,0,.964,4.135l-3.96,2.66,3.046,4.531L211.867,97a12.246,12.246,0,0,0,3.99,2.319l-.991,5.05,5.357,1.051,1.075-5.475a12.151,12.151,0,0,0,3.468-.914l2.66,3.959,4.531-3.045-2.779-4.136A12.213,12.213,0,0,0,231,93.028ZM222.718,91.9a5,5,0,1,1,1.363-6.944A5.01,5.01,0,0,1,222.718,91.9Z" transform="translate(-7.154 -70.326)" fill="#cce1f7"/>
        <path id="Path_40" data-name="Path 40" d="M467.737,117.571l1.052-5.357-5.02-.984a12.252,12.252,0,0,0-.664-3.922l4.136-2.778L464.2,100l-3.958,2.66a12.222,12.222,0,0,0-4.064-2.734l.985-5.021L451.8,93.852l-1.015,5.174a12.177,12.177,0,0,0-3.26.635l-2.778-4.137-4.533,3.045,2.66,3.959a12.223,12.223,0,0,0-2.734,4.063l-4.387-.861-1.053,5.357,4.543.891a12.18,12.18,0,0,0,.964,4.134l-3.959,2.66L439.3,123.3l4.137-2.778a12.221,12.221,0,0,0,3.99,2.319l-.992,5.05,5.357,1.052,1.075-5.475a12.154,12.154,0,0,0,3.468-.916l2.659,3.959,4.531-3.045-2.778-4.135a12.247,12.247,0,0,0,1.82-2.778Zm-13.455-2.145a5,5,0,1,1,1.364-6.944A5.009,5.009,0,0,1,454.283,115.426Z" transform="translate(30.681 -66.482)" fill="#cce1f7"/>
        <path id="Path_41" data-name="Path 41" d="M74.064,174.793l1.052-5.359-5.02-.984a12.252,12.252,0,0,0-.664-3.922l4.136-2.778-3.045-4.531-3.958,2.66a12.222,12.222,0,0,0-4.064-2.734l.985-5.021-5.357-1.051-1.016,5.174a12.169,12.169,0,0,0-3.259.635l-2.779-4.137-4.531,3.045,2.66,3.959a12.2,12.2,0,0,0-2.734,4.064l-4.388-.862-1.052,5.357,4.543.891a12.173,12.173,0,0,0,.964,4.134l-3.96,2.66,3.046,4.531,4.136-2.778a12.218,12.218,0,0,0,3.992,2.319l-.992,5.05,5.357,1.052,1.075-5.475a12.153,12.153,0,0,0,3.468-.916l2.66,3.96,4.531-3.046-2.779-4.135a12.212,12.212,0,0,0,1.821-2.778ZM60.61,172.647a5,5,0,1,1,1.363-6.944A5.009,5.009,0,0,1,60.61,172.647Z" transform="translate(-33.641 -57.133)" fill="#cce1f7"/>
      </g>
    </g>
    <path id="Path_42" data-name="Path 42" d="M285.2,405.959c-88.749,0-166.337-3.872-208.443-9.646-4.428-.607-5.772,5.8-1.474,7.028,28.731,8.2,69.415,8.767,95.4,11.566,44.8,4.826,109.94,3.49,114.512,19.1s5.026,32.142-40.637,29.815c-49.548-2.525-41.3-29.815-41.3-29.815-45.954,1.309-155.313-9.449-167.409-28.052-11.96-18.392,9.956-22.645,10.455-22.738l.007,0c18.511-9.339,118.413-16.474,238.885-16.474,133.629,0,241.958,8.778,241.958,19.607S418.829,405.959,285.2,405.959Z" transform="translate(1.728 50.878)" fill="#cce1f7"/>
    <g id="Group_655" data-name="Group 655" transform="translate(21.713 55.354)">
      <g id="Group_625" data-name="Group 625" transform="translate(3.318 247.281)">
        <path id="Path_43" data-name="Path 43" d="M120.647,365.278c-10.654-10.739-33.928-35.91-48.59-64.487-21.041-41.012-42.14-37.346-46.281-22.849-10.707,37.495,52.36,78.245,78.51,93.3Z" transform="translate(-24.565 -267.906)" fill="#3b73ab"/>
        <g id="Group_624" data-name="Group 624" transform="translate(21.341 27.059)">
          <path id="Path_44" data-name="Path 44" d="M111.891,363.576c-18.362-13.77-33.885-30.06-44.433-42.352a312.623,312.623,0,0,1-22.688-29.6,1.012,1.012,0,0,0-1.7,1.1A314.233,314.233,0,0,0,65.9,322.516c10.419,12.147,25.669,28.173,43.726,41.885Z" transform="translate(-42.908 -291.165)" fill="#00528a"/>
        </g>
      </g>
      <g id="Group_627" data-name="Group 627" transform="translate(49.568 249.504)">
        <path id="Path_45" data-name="Path 45" d="M111.513,350.533c-4.935-9.849-14.292-30.482-17.761-51.506-5.184-31.414-19.835-33.457-25.617-24.8-15.88,23.788,22.179,67.546,34.318,80.5Z" transform="translate(-64.32 -269.817)" fill="#00528a"/>
        <g id="Group_626" data-name="Group 626" transform="translate(13.215 20.04)">
          <path id="Path_46" data-name="Path 46" d="M106.208,349.316a199.5,199.5,0,0,1-20.479-37.5,215.718,215.718,0,0,1-8.675-24.254.7.7,0,0,0-1.35.368,217.2,217.2,0,0,0,8.727,24.408,201.11,201.11,0,0,0,20.488,37.581Z" transform="translate(-75.678 -287.042)" fill="#01305a"/>
        </g>
      </g>
      <g id="Group_629" data-name="Group 629" transform="translate(445.991 81.886)">
        <path id="Path_47" data-name="Path 47" d="M405.068,229.062c9.819-11.508,31.139-38.353,43.617-67.95,17.906-42.474,39.221-40.4,44.437-26.254,13.488,36.585-46.344,81.95-71.291,98.922Z" transform="translate(-405.068 -125.74)" fill="#3b73ab"/>
        <g id="Group_628" data-name="Group 628" transform="translate(5.901 27.675)">
          <path id="Path_48" data-name="Path 48" d="M410.14,226.835c17.276-15.108,31.535-32.517,41.13-45.565a312.558,312.558,0,0,0,20.4-31.217,1.012,1.012,0,0,1,1.775.973,314.553,314.553,0,0,1-20.528,31.416c-9.479,12.9-23.484,30.019-40.462,45.048Z" transform="translate(-410.14 -149.528)" fill="#00528a"/>
        </g>
      </g>
      <g id="Group_633" data-name="Group 633" transform="translate(447.54 87.422)">
        <path id="Path_49" data-name="Path 49" d="M406.4,213.694c4.182-10.191,11.965-31.467,13.849-52.693,2.812-31.714,17.268-34.849,23.684-26.645,17.621,22.529-17.049,69.018-28.183,82.846Z" transform="translate(-406.399 -130.498)" fill="#00528a"/>
        <g id="Group_632" data-name="Group 632" transform="translate(3.559 20.194)">
          <g id="Group_631" data-name="Group 631">
            <g id="Group_630" data-name="Group 630">
              <path id="Path_50" data-name="Path 50" d="M409.458,212.193a199.5,199.5,0,0,0,17.61-38.934A215.861,215.861,0,0,0,433.9,148.42a.7.7,0,0,1,1.373.265,217,217,0,0,1-6.871,25,201.116,201.116,0,0,1-17.613,39.011Z" transform="translate(-409.458 -147.856)" fill="#01305a"/>
            </g>
          </g>
        </g>
      </g>
      <path id="Path_51" data-name="Path 51" d="M154.262,115.443c1.831-17.147.4-33.72-8.129-29.633s-5.548,32.564,6.066,51.345l2.423,7.334c-8.225-13.835-24.636-25.555-31.372-21.175-6.693,4.353,4.94,11.164,16.6,15.612,8.877,3.385,13.913,7.638,16.251,10.046l11.443,34.635c-13.087-21.871-39.01-40.344-49.667-33.411-10.621,6.907,7.838,17.713,26.341,24.771,13.984,5.333,21.965,12.024,25.711,15.859l2.281,6.906q1.89-.312,3.774-.646l-13.614-41.207a49.045,49.045,0,0,1,6.324-14.013c6.717-10.521,12-22.92,4.033-22.429-6.916.427-12.479,14.756-12.829,28.961l-4.709-14.252C154.489,129.49,153.471,122.844,154.262,115.443Z" transform="translate(-6.509 -50.48)" fill="#00528a"/>
      <path id="Path_52" data-name="Path 52" d="M461.538,289.836c4.629-16.612,12.074-31.487,18.494-24.538s-6.866,32.312-24.594,45.478l-4.958,5.92c12.751-9.82,32.329-14.654,36.973-8.1,4.613,6.517-8.713,8.551-21.192,8.38-9.5-.131-15.75,1.96-18.812,3.335l-23.423,27.963c20.237-15.494,51.148-23.091,58.494-12.714,7.319,10.34-13.823,13.569-33.627,13.3-14.965-.206-24.851,3.064-29.749,5.247l-4.67,5.575q-1.642-.986-3.269-1.993l27.866-33.269a49.035,49.035,0,0,0-.7-15.358c-2.358-12.257-2.692-25.732,4.533-22.334,6.271,2.949,6.149,18.32,1.231,31.651l9.636-11.5C456.141,302.807,459.54,297.006,461.538,289.836Z" transform="translate(41.926 -21.337)" fill="#3b73ab"/>
      <g id="Group_639" data-name="Group 639" transform="translate(0 132.825)">
        <g id="Group_635" data-name="Group 635">
          <g id="Group_634" data-name="Group 634">
            <path id="Path_53" data-name="Path 53" d="M136.99,279.2h19.149c-10.347-1.71-36-12.723-38.288-34.807-2.9-27.973-12.858-27.622-29.642-30.548S66.8,215.694,56.146,193.978s-34.433-24.453-34.433-24.453,21.67,23.645,17.523,41.613,10.223,25.146,21.73,27.4,8.75,17.723,13.122,27.656c2,4.533,10.165,9.232,18.456,13Z" transform="translate(-21.713 -169.525)" fill="#00528a"/>
          </g>
        </g>
        <g id="Group_638" data-name="Group 638" transform="translate(26.33 34.793)">
          <g id="Group_637" data-name="Group 637">
            <g id="Group_636" data-name="Group 636">
              <path id="Path_54" data-name="Path 54" d="M91.814,246.777c.836,8.378,5.653,18.34,12.885,26.649.255.292.519.589.789.886h2.179c-.622-.656-1.213-1.3-1.763-1.936-6.919-7.947-11.71-17.817-12.5-25.757-1.262-12.641-11.031-21.256-31.677-27.932-11.984-3.873-15.769-18.5-15.8-18.651a.8.8,0,0,0-1.55.385c.158.636,4.024,15.636,16.861,19.786C81.188,226.658,90.622,234.854,91.814,246.777Z" transform="translate(-44.345 -199.431)" fill="#01305a"/>
            </g>
          </g>
        </g>
      </g>
      <g id="Group_644" data-name="Group 644" transform="translate(31.489 47.03)">
        <g id="Group_641" data-name="Group 641">
          <g id="Group_640" data-name="Group 640">
            <path id="Path_55" data-name="Path 55" d="M122.717,291.248h40.256l.034-.121a52.032,52.032,0,0,0,1.913-12.335c.478-14.09.718-49.471-8.389-58.532-11.448-11.39-34.393-15.842-31.366-33.026s.761-40.977-26.405-44.843S50.373,95.779,50.373,95.779s-8.934,34.472,15.507,60.9,15.333,30.285,10.407,55.152S65.54,250.333,102.82,269.335A41.446,41.446,0,0,1,122.717,291.248Z" transform="translate(-48.779 -95.779)" fill="#3b73ab"/>
          </g>
        </g>
        <g id="Group_643" data-name="Group 643" transform="translate(35.285 55.533)">
          <g id="Group_642" data-name="Group 642">
            <path id="Path_56" data-name="Path 56" d="M97.043,177.6c-1.79,32.236,4.94,50.412,21.812,58.934,10.6,5.355,21.734,17.293,29.063,31.153a88.556,88.556,0,0,1,6.5,15.762h2.478a90.641,90.641,0,0,0-6.873-16.873c-7.661-14.489-18.912-26.511-30.093-32.158-15.916-8.04-22.242-25.525-20.509-56.687,1.113-20.042-17.638-33.443-18.436-34a1.188,1.188,0,0,0-1.366,1.944C79.8,145.8,98.084,158.89,97.043,177.6Z" transform="translate(-79.109 -143.513)" fill="#00528a"/>
          </g>
        </g>
      </g>
      <g id="Group_650" data-name="Group 650" transform="translate(333.141 35.173)">
        <g id="Group_646" data-name="Group 646">
          <g id="Group_645" data-name="Group 645">
            <path id="Path_57" data-name="Path 57" d="M315.153,229.1h19.61l19.882-12.952c4.89-7.684,9.17-16.08,8.367-20.968-1.758-10.709-12.51-22.161-4.1-30.334s16.533-22.03,3.249-34.823-8.032-44.432-8.032-44.432-18.427,15.271-15.5,39.283S335.07,147.4,322.6,159.017s-21,16.756-8.162,41.775C319.24,210.142,318.3,220.269,315.153,229.1Z" transform="translate(-308.067 -85.587)" fill="#00528a"/>
          </g>
        </g>
        <g id="Group_649" data-name="Group 649" transform="translate(24.928 43.831)">
          <g id="Group_648" data-name="Group 648">
            <g id="Group_647" data-name="Group 647">
              <path id="Path_58" data-name="Path 58" d="M333.629,188.536c3.872,7.476,5.272,18.453,3.748,29.362-.053.384-.113.776-.176,1.174l-1.827,1.189c.164-.89.3-1.756.421-2.584,1.459-10.436.085-21.321-3.583-28.408-5.841-11.281-2.359-23.832,11.3-40.694,7.927-9.786,3.113-24.11,3.061-24.254a.8.8,0,0,1,1.509-.524c.215.62,5.163,15.3-3.327,25.782C331.549,165.879,328.118,177.895,333.629,188.536Z" transform="translate(-329.494 -123.262)" fill="#01305a"/>
            </g>
          </g>
        </g>
      </g>
      <g id="Group_654" data-name="Group 654" transform="translate(359.603)">
        <g id="Group_651" data-name="Group 651">
          <path id="Path_59" data-name="Path 59" d="M385.281,234.036a42.015,42.015,0,0,1,7.817-5.127c37.28-19,31.46-32.642,26.533-57.509s-14.034-28.728,10.406-55.151,15.507-60.9,15.507-60.9-21.219,42.744-48.385,46.61-29.433,27.658-26.405,44.843-19.918,21.637-31.366,33.027c-8.28,8.238-8.834,38.232-8.507,54.2Z" transform="translate(-330.813 -55.354)" fill="#3b73ab"/>
        </g>
        <g id="Group_653" data-name="Group 653" transform="translate(10.086 55.532)">
          <g id="Group_652" data-name="Group 652">
            <path id="Path_60" data-name="Path 60" d="M342.181,226.237c7.327-13.422,18.174-24.9,28.509-30.128,16.873-8.522,23.6-26.7,21.812-58.934-1.041-18.711,17.241-31.8,17.43-31.927a1.188,1.188,0,0,0-1.366-1.945c-.8.56-19.551,13.961-18.436,34,1.732,31.163-4.594,48.647-20.509,56.689-11.181,5.646-22.432,17.668-30.093,32.157l-.045.086Z" transform="translate(-339.482 -103.087)" fill="#00528a"/>
          </g>
        </g>
      </g>
    </g>
    <g id="Group_663" data-name="Group 663" transform="translate(57.833 171.132)">
      <g id="Group_662" data-name="Group 662" transform="translate(0)">
        <g id="Group_660" data-name="Group 660" transform="translate(36.44)">
          <rect id="Rectangle_37" data-name="Rectangle 37" width="390.108" height="241.889" rx="13.504" fill="#01305a"/>
          <path id="Path_61" data-name="Path 61" d="M454.428,178.988V368.056a10.072,10.072,0,0,1-10.071,10.075h-335.3a10.035,10.035,0,0,1-6.226-2.155,10.259,10.259,0,0,1-1.266-1.187,10.015,10.015,0,0,1-2.583-6.734V178.988a10.078,10.078,0,0,1,10.075-10.075h335.3a10,10,0,0,1,5.1,1.384,10.122,10.122,0,0,1,3.455,3.366A10.009,10.009,0,0,1,454.428,178.988Z" transform="translate(-81.648 -152.578)" fill="#fff"/>
          <g id="Group_659" data-name="Group 659" transform="translate(38.133 70.002)">
            <g id="Group_656" data-name="Group 656" transform="translate(0 2.364)">
              <path id="Path_62" data-name="Path 62" d="M218.059,302.762H204.32v17.729H170.489V302.762H116.86V280.6l43.877-63.527h35.752l-39,58.651h14.036V259.919h32.8v15.807h13.738Z" transform="translate(-116.86 -217.075)" fill="#5642ec"/>
            </g>
            <g id="Group_657" data-name="Group 657" transform="translate(106.071)">
              <path id="Path_63" data-name="Path 63" d="M208.034,269.115c0-34.275,19.5-54.072,46.832-54.072s46.832,19.8,46.832,54.072-19.5,54.072-46.832,54.072S208.034,303.39,208.034,269.115Zm58.651,0c0-19.944-5.022-26.149-11.819-26.149s-11.819,6.206-11.819,26.149,5.023,26.15,11.819,26.15S266.685,289.06,266.685,269.115Z" transform="translate(-208.034 -215.043)" fill="#5642ec"/>
            </g>
            <g id="Group_658" data-name="Group 658" transform="translate(207.264 2.364)">
              <path id="Path_64" data-name="Path 64" d="M396.214,302.762H382.475v17.729H348.644V302.762H295.015V280.6l43.877-63.527h35.752l-39,58.651h14.036V259.919h32.8v15.807h13.738Z" transform="translate(-295.015 -217.075)" fill="#5642ec"/>
            </g>
          </g>
        </g>
        <path id="Path_65" data-name="Path 65" d="M515.749,355.56v1.346a30.611,30.611,0,0,1-30.616,30.615H83.375A30.611,30.611,0,0,1,52.76,356.906V355.56Z" transform="translate(-52.76 -122.082)" fill="#01305a"/>
        <path id="Path_66" data-name="Path 66" d="M207.139,355.56v.307c0,2.424,1.623,4.389,3.626,4.389h94.516c2,0,3.626-1.965,3.626-4.389v-.307Z" transform="translate(-27.536 -122.082)" fill="#01305a" style="mix-blend-mode: screen;isolation: isolate"/>
        <g id="Group_661" data-name="Group 661" transform="translate(53.77 16.335)">
          <path id="Path_67" data-name="Path 67" d="M454.426,178.988v11.155H98.978V178.988a10.086,10.086,0,0,1,10.075-10.075h335.3a10.083,10.083,0,0,1,10.07,10.075Z" transform="translate(-98.978 -168.913)" fill="#01305a" opacity="0.2"/>
          <rect id="Rectangle_38" data-name="Rectangle 38" width="190.272" height="5.64" rx="0.754" transform="translate(80.188 8.339)" fill="#fff"/>
          <path id="Path_68" data-name="Path 68" d="M129.577,178.907V181a.779.779,0,0,1-1.168.675l-1.81-1.045-1.81-1.046a.779.779,0,0,1,0-1.348l1.81-1.046,1.81-1.045a.778.778,0,0,1,1.168.675Z" transform="translate(-94.824 -167.749)" fill="#01305a"/>
          <path id="Path_69" data-name="Path 69" d="M136.947,178.907V181a.78.78,0,0,0,1.169.675l1.81-1.045,1.81-1.046a.779.779,0,0,0,0-1.348l-1.81-1.046-1.81-1.045a.779.779,0,0,0-1.169.675Z" transform="translate(-92.774 -167.749)" fill="#01305a"/>
        </g>
        <path id="Path_70" data-name="Path 70" d="M452.355,173.223H100.54a10.048,10.048,0,0,1,8.258-4.31H444.1A10.034,10.034,0,0,1,452.355,173.223Z" transform="translate(-44.953 -152.578)" fill="#01305a" opacity="0.2"/>
        <path id="Path_71" data-name="Path 71" d="M373.184,337H158.465a7.6,7.6,0,0,1-7.6-7.6h0a7.6,7.6,0,0,1,7.6-7.6h214.72a7.6,7.6,0,0,1,7.6,7.6h0A7.6,7.6,0,0,1,373.184,337Z" transform="translate(-36.731 -127.598)" fill="#01305a" opacity="0.1"/>
      </g>
    </g>
    <g id="Group_725" data-name="Group 725" transform="translate(32.774 256.297)">
      <g id="Group_664" data-name="Group 664" transform="translate(355.601 78.808)">
        <path id="Path_72" data-name="Path 72" d="M372.067,304.978a95.023,95.023,0,0,1-4.814,8.251c-11.526,17.451-20.1,13.711-24.71,8.328a24.212,24.212,0,0,1-3.65-5.762,25.382,25.382,0,0,1-2.013-6.808l2.141.5c2.536,1.167,6.738,2.769,9.856,2.284a5.831,5.831,0,0,0,1.134-.294c2.8-1.061,6.6-6.556,9.173-10.738,1.687-2.74,2.848-4.918,2.848-4.918Z" transform="translate(-336.88 -295.816)" fill="#ffc0ad"/>
        <path id="Path_73" data-name="Path 73" d="M368.934,304.978a95.023,95.023,0,0,1-4.814,8.251c-3.275-3.589-6.238-8.877-8.068-12.495,1.687-2.74,2.848-4.918,2.848-4.918Z" transform="translate(-333.748 -295.816)" fill="#fda084"/>
        <path id="Path_74" data-name="Path 74" d="M351.367,310.495s-2.326,7.127-12.474,3.449a25.382,25.382,0,0,1-2.013-6.808l2.141.5c2.536,1.167,6.738,2.769,9.856,2.284Z" transform="translate(-336.88 -293.966)" fill="#fda084"/>
      </g>
      <g id="Group_665" data-name="Group 665" transform="translate(450.233 75.754)">
        <path id="Path_75" data-name="Path 75" d="M432.652,330.955c-2.327,13.426-13.243,3.568-14.185-6.916a68.318,68.318,0,0,1-.235-7.085c.035-2.164.148-4.252.3-6.146.029-.366.058-.724.09-1.073.4-4.564.977-7.766.977-7.766l7.137-8.778s.832,2.461,1.9,6.247c.981,3.5,2.158,8.129,3.052,13,.27,1.472.514,2.964.718,4.453A48,48,0,0,1,432.652,330.955Z" transform="translate(-418.222 -293.191)" fill="#ffc0ad"/>
        <path id="Path_76" data-name="Path 76" d="M428.586,299.438c-2.117,3.894-5.6,9.057-10.1,11.369.029-.366.058-.724.09-1.073.4-4.564.977-7.766.977-7.766l7.137-8.778S427.521,295.652,428.586,299.438Z" transform="translate(-418.179 -293.191)" fill="#fda084"/>
        <path id="Path_77" data-name="Path 77" d="M432.4,314.566c-2.583,1.565-11.046.828-14.167.064.041-2.583.194-5.055.386-7.219l13.063,2.7C431.949,311.584,432.193,313.077,432.4,314.566Z" transform="translate(-418.221 -290.868)" fill="#fda084"/>
      </g>
      <path id="Path_78" data-name="Path 78" d="M367.554,274.973s-10.33,18.242-12.028,24.417c0,0,7.057,11.8,13.462,13.1l2.372-8.045S371.611,279.275,367.554,274.973Z" transform="translate(21.767 -220.414)" fill="#3b73ab"/>
      <g id="Group_671" data-name="Group 671" transform="translate(389.322 44.696)">
        <path id="Path_79" data-name="Path 79" d="M388.556,266.987l-22.691,9.371,10.039,77.76s31.234,4.386,47.384,0v-77.76l-22.059-9.863Z" transform="translate(-365.865 -266.495)" fill="#3b73ab"/>
        <g id="Group_670" data-name="Group 670" transform="translate(17.925 3.71)">
          <g id="Group_666" data-name="Group 666" transform="translate(0 38.321)">
            <path id="Path_80" data-name="Path 80" d="M381.407,303.462a36.666,36.666,0,0,0,16.6,9.847.489.489,0,0,0,.618-.412v-.009a.486.486,0,0,0-.349-.524,35.709,35.709,0,0,1-16.169-9.592.483.483,0,0,0-.825.263l0,.012A.487.487,0,0,0,381.407,303.462Z" transform="translate(-381.273 -302.624)" fill="#00528a"/>
          </g>
          <g id="Group_667" data-name="Group 667" transform="translate(0.323 31.308)">
            <path id="Path_81" data-name="Path 81" d="M381.55,297.048v.021a.446.446,0,0,0,.059.224c.251.435.537.89.867,1.358a19.517,19.517,0,0,0,11.171,7.566.446.446,0,0,0,.233-.861,18.374,18.374,0,0,1-11.493-8.535A.448.448,0,0,0,381.55,297.048Z" transform="translate(-381.55 -296.595)" fill="#00528a"/>
          </g>
          <g id="Group_669" data-name="Group 669" transform="translate(1.135)">
            <g id="Group_668" data-name="Group 668">
              <path id="Path_82" data-name="Path 82" d="M382.249,281.221v.009a.448.448,0,0,0,.527.411,31.7,31.7,0,0,0,12.5-5.53,30.358,30.358,0,0,0,6.06-5.716.446.446,0,0,0-.716-.533,32.074,32.074,0,0,1-18.015,10.9A.441.441,0,0,0,382.249,281.221Z" transform="translate(-382.248 -269.684)" fill="#00528a"/>
            </g>
          </g>
        </g>
      </g>
      <g id="Group_686" data-name="Group 686" transform="translate(345.331 90.539)">
        <g id="Group_681" data-name="Group 681" transform="translate(0 78.741)">
          <g id="Group_680" data-name="Group 680">
            <path id="Path_83" data-name="Path 83" d="M353.4,386.1l2.434-12.52H347.52L345.488,385.4A9.781,9.781,0,0,0,353.4,386.1Z" transform="translate(-325.204 -373.582)" fill="#ffc0ad"/>
            <path id="Path_84" data-name="Path 84" d="M350.554,384.558s-1.847-2.422-3.291-2.3-12.489,9.111-16.3,9.885-3.036,3.58-2.32,5.008,30.458-.89,30.458-.89.716-8.868-.287-11.568S353.548,385.165,350.554,384.558Z" transform="translate(-328.052 -372.165)" fill="#00528a"/>
            <g id="Group_679" data-name="Group 679" transform="translate(8.06 13.051)">
              <g id="Group_674" data-name="Group 674" transform="translate(2.148 1.525)">
                <g id="Group_673" data-name="Group 673">
                  <g id="Group_672" data-name="Group 672">
                    <path id="Path_85" data-name="Path 85" d="M343.03,390.183a.535.535,0,0,0,.61-.784,8.243,8.243,0,0,0-2.819-2.871,3.69,3.69,0,0,0-3.783.22.535.535,0,0,0,.648.852,2.63,2.63,0,0,1,2.665-.111,7.289,7.289,0,0,1,2.365,2.45A.535.535,0,0,0,343.03,390.183Z" transform="translate(-336.827 -386.111)" fill="#fff"/>
                  </g>
                </g>
              </g>
              <g id="Group_677" data-name="Group 677" transform="translate(3.725)">
                <g id="Group_676" data-name="Group 676">
                  <g id="Group_675" data-name="Group 675">
                    <path id="Path_86" data-name="Path 86" d="M344.386,388.872a.528.528,0,0,0,.416-.052.534.534,0,0,0,.192-.732,8.234,8.234,0,0,0-2.818-2.871,3.688,3.688,0,0,0-3.783.22.535.535,0,0,0,.648.852,2.633,2.633,0,0,1,2.665-.111,7.25,7.25,0,0,1,2.364,2.451A.535.535,0,0,0,344.386,388.872Z" transform="translate(-338.183 -384.8)" fill="#fff"/>
                  </g>
                </g>
              </g>
              <g id="Group_678" data-name="Group 678" transform="translate(0 2.772)">
                <path id="Path_87" data-name="Path 87" d="M341.184,391.255a.535.535,0,0,0,.61-.784,8.232,8.232,0,0,0-2.819-2.871,3.684,3.684,0,0,0-3.783.22.535.535,0,0,0,.648.852,2.631,2.631,0,0,1,2.665-.111,7.236,7.236,0,0,1,2.365,2.45A.536.536,0,0,0,341.184,391.255Z" transform="translate(-334.981 -387.182)" fill="#fff"/>
              </g>
            </g>
          </g>
        </g>
        <g id="Group_684" data-name="Group 684" transform="translate(21.025)">
          <g id="Group_683" data-name="Group 683">
            <g id="Group_682" data-name="Group 682">
              <path id="Path_88" data-name="Path 88" d="M391.028,339.882S376.8,304.546,367.951,305.94c-13.7,2.158-22.856,44.22-21.734,83.457l9.4.535s10.518-36.961,12.4-46.65c0,0,7.249,25.157,23.575,21.655C403.681,362.345,395.8,349.974,391.028,339.882Z" transform="translate(-346.124 -305.899)" fill="#a4a0f9"/>
            </g>
          </g>
        </g>
        <g id="Group_685" data-name="Group 685" transform="translate(28.243 24.04)">
          <path id="Path_89" data-name="Path 89" d="M353.487,384.937l-1.158-.209c.026-.137,2.528-13.894,5.557-27.793,6.181-28.354,8.5-29.682,9.268-30.118a1.6,1.6,0,0,1,1.487-.127c1.551.675,2.328,3.983,3.5,8.992,1.9,8.1,4.506,19.182,11.694,23.825l-.638.988c-7.588-4.9-10.254-16.254-12.2-24.543-.935-3.982-1.82-7.744-2.828-8.183-.058-.026-.178-.078-.435.07C364.556,329.656,357.472,362.982,353.487,384.937Z" transform="translate(-352.329 -326.563)" fill="#5642ec"/>
        </g>
        <path id="Path_90" data-name="Path 90" d="M345.433,375.2l11.521.965.221.019L356.543,380l-11.322-.8Z" transform="translate(-325.247 -294.577)" fill="#5642ec"/>
      </g>
      <g id="Group_697" data-name="Group 697" transform="translate(384.298 90.539)">
        <g id="Group_696" data-name="Group 696">
          <path id="Path_91" data-name="Path 91" d="M382.226,360.068s16.546,3.178,38.484-.77a40.658,40.658,0,0,0-12.595-22.507l-29.587,2.137C376.665,345.911,378.018,352.96,382.226,360.068Z" transform="translate(-358.906 -300.852)" fill="#a4a0f9"/>
          <g id="Group_694" data-name="Group 694" transform="translate(0 77.808)">
            <g id="Group_693" data-name="Group 693">
              <path id="Path_92" data-name="Path 92" d="M380.147,382.049a35.283,35.283,0,0,0-4.99-.792c-1.069.07-7.885,8.411-10.281,8.992-4.342,1.052-4.043,7.893-1.361,8.114,7.754.639,20.8-3.207,20.8-3.207s.824-8.83.172-11.562S382.338,382.762,380.147,382.049Z" transform="translate(-361.547 -371.396)" fill="#00528a"/>
              <path id="Path_93" data-name="Path 93" d="M380.539,384.029l2.883-11.249h-8.309l-1.865,10.853S375.961,385.5,380.539,384.029Z" transform="translate(-359.635 -372.78)" fill="#ffc0ad"/>
              <g id="Group_692" data-name="Group 692" transform="translate(4.062 13.099)">
                <g id="Group_689" data-name="Group 689" transform="translate(2.001 1.683)">
                  <g id="Group_688" data-name="Group 688">
                    <g id="Group_687" data-name="Group 687">
                      <path id="Path_94" data-name="Path 94" d="M373.245,389.133a.534.534,0,0,0,.522-.843,8.228,8.228,0,0,0-3.106-2.551,3.681,3.681,0,0,0-3.736.621.534.534,0,0,0,.734.776,2.632,2.632,0,0,1,2.636-.393,7.282,7.282,0,0,1,2.612,2.182A.528.528,0,0,0,373.245,389.133Z" transform="translate(-366.758 -385.487)" fill="#fff"/>
                    </g>
                  </g>
                </g>
                <g id="Group_690" data-name="Group 690" transform="translate(3.405)">
                  <path id="Path_95" data-name="Path 95" d="M374.453,387.687a.534.534,0,0,0,.521-.843,8.209,8.209,0,0,0-3.105-2.552,3.679,3.679,0,0,0-3.736.621.534.534,0,1,0,.734.776,2.632,2.632,0,0,1,2.636-.393,7.263,7.263,0,0,1,2.611,2.183A.529.529,0,0,0,374.453,387.687Z" transform="translate(-367.966 -384.04)" fill="#fff"/>
                </g>
                <g id="Group_691" data-name="Group 691" transform="translate(0 3.151)">
                  <path id="Path_96" data-name="Path 96" d="M371.526,390.4a.534.534,0,0,0,.521-.843A8.229,8.229,0,0,0,368.941,387a3.684,3.684,0,0,0-3.736.621.535.535,0,0,0,.735.777,2.626,2.626,0,0,1,2.635-.393,7.236,7.236,0,0,1,2.612,2.183A.527.527,0,0,0,371.526,390.4Z" transform="translate(-365.039 -386.748)" fill="#fff"/>
                </g>
              </g>
            </g>
          </g>
          <path id="Path_97" data-name="Path 97" d="M419.365,364.936a13.868,13.868,0,0,1-5.854.043,13.41,13.41,0,0,1-1.725-.49c-11.014-3.91-16-21.209-16-21.209C393.9,352.97,383,389.907,383,389.907l-1.7-.223-1.173-.157-6.438-.847c-1.267-37.985,8.344-80.583,22.035-82.74,8.845-1.4,23.078,33.942,23.078,33.942C423.572,349.974,431.448,362.344,419.365,364.936Z" transform="translate(-359.582 -305.899)" fill="#a4a0f9"/>
          <g id="Group_695" data-name="Group 695" transform="translate(20.305 22.168)">
            <path id="Path_98" data-name="Path 98" d="M412.624,361.866a13.41,13.41,0,0,1-1.725-.49c-4.03-6.489-6.132-15.566-7.826-22.875-1.345-5.815-2.615-11.3-4.285-12.245a.925.925,0,0,0-.8-.066c-1.419.462-4.764,5.168-11.194,31.441-3.067,12.523-5.608,25-6.391,28.939-.162.8-.251,1.251-.256,1.275L379,387.621c0-.023.086-.447.235-1.208.772-3.866,3.325-16.44,6.418-29.06,7.552-30.833,10.877-31.923,11.97-32.284a2.11,2.11,0,0,1,1.74.164c2.121,1.2,3.27,6.149,4.855,13C405.994,345.893,408.226,355.53,412.624,361.866Z" transform="translate(-379 -324.954)" fill="#5642ec"/>
          </g>
          <path id="Path_99" data-name="Path 99" d="M373.094,374.752l11.373,2.077.218.04-1,3.737-11.191-1.888Z" transform="translate(-359.758 -294.649)" fill="#5642ec"/>
        </g>
      </g>
      <path id="Path_100" data-name="Path 100" d="M416.033,274.973l14.716,21.314s-6.535,12.319-12.939,13.608c0,0-6.666-11.648-7.45-17.594S413.735,275.485,416.033,274.973Z" transform="translate(30.711 -220.414)" fill="#3b73ab"/>
      <g id="Group_709" data-name="Group 709" transform="translate(400.663 0)">
        <path id="Path_101" data-name="Path 101" d="M378.954,248.727c0,8.272,5.093,13.971,13.364,13.971s14.036-6.129,14.036-14.4-4.9-14.538-13.17-14.538C383.264,233.761,378.954,240.455,378.954,248.727Z" transform="translate(-375.068 -227.148)" fill="#01305a"/>
        <path id="Path_102" data-name="Path 102" d="M379.99,245.092s-6.165-6.1-3.86-8.972,5.31-.131,6.224-2.875,1.275-6.274,5.015-4.836,3.915,3.79,7.488,1.7,2.789,1.438,5.925,3.006,5.327,1.306,4.82,4.313,3.01,3.629,1.569,6.95-3.123,1.646-3.123,1.646Z" transform="translate(-375.614 -228.076)" fill="#01305a"/>
        <g id="Group_702" data-name="Group 702" transform="translate(1.184 23.607)">
          <path id="Path_103" data-name="Path 103" d="M381.193,249.9s-2.3-3.064-4.007-.531.706,10.018,4.89,8.19Z" transform="translate(-376.632 -248.368)" fill="#fda084"/>
          <g id="Group_698" data-name="Group 698" transform="translate(0.897 2.683)">
            <path id="Path_104" data-name="Path 104" d="M381.036,254.873a.354.354,0,0,1-.34-.258,5.465,5.465,0,0,0-3.067-3.256.354.354,0,0,1,.251-.662,6.1,6.1,0,0,1,3.5,3.728.353.353,0,0,1-.244.435A.347.347,0,0,1,381.036,254.873Z" transform="translate(-377.402 -250.673)" fill="#ff7972"/>
          </g>
          <g id="Group_701" data-name="Group 701" transform="translate(1.762 4.072)">
            <g id="Group_700" data-name="Group 700">
              <g id="Group_699" data-name="Group 699">
                <path id="Path_105" data-name="Path 105" d="M378.5,253.513a.35.35,0,0,1-.192-.056.355.355,0,0,1-.106-.489,3.229,3.229,0,0,1,1.327-1.07.354.354,0,0,1,.289.646,2.568,2.568,0,0,0-1.021.807A.353.353,0,0,1,378.5,253.513Z" transform="translate(-378.146 -251.868)" fill="#ff7972"/>
              </g>
            </g>
          </g>
        </g>
        <g id="Group_707" data-name="Group 707" transform="translate(28.544 23.607)">
          <path id="Path_106" data-name="Path 106" d="M401.032,249.9s2.3-3.064,4.007-.531-.706,10.018-4.89,8.19Z" transform="translate(-400.149 -248.368)" fill="#fda084"/>
          <g id="Group_703" data-name="Group 703" transform="translate(0.559 2.683)">
            <path id="Path_107" data-name="Path 107" d="M400.984,254.873a.353.353,0,0,0,.34-.258,5.468,5.468,0,0,1,3.067-3.256.354.354,0,0,0-.251-.662,6.1,6.1,0,0,0-3.5,3.728.353.353,0,0,0,.245.435A.338.338,0,0,0,400.984,254.873Z" transform="translate(-400.63 -250.673)" fill="#ff7972"/>
          </g>
          <g id="Group_706" data-name="Group 706" transform="translate(1.801 4.072)">
            <g id="Group_705" data-name="Group 705">
              <g id="Group_704" data-name="Group 704">
                <path id="Path_108" data-name="Path 108" d="M403.226,253.513a.349.349,0,0,0,.191-.056.353.353,0,0,0,.106-.489,3.219,3.219,0,0,0-1.327-1.07.354.354,0,0,0-.289.646,2.568,2.568,0,0,1,1.021.807A.353.353,0,0,0,403.226,253.513Z" transform="translate(-401.697 -251.868)" fill="#ff7972"/>
              </g>
            </g>
          </g>
        </g>
        <path id="Path_109" data-name="Path 109" d="M397.121,261.726v7.442s-2.219,3.79-5.22,4.049-5.663-3.263-5.663-3.263v-7.7Z" transform="translate(-373.878 -222.578)" fill="#ffc0ad"/>
        <path id="Path_110" data-name="Path 110" d="M397.121,261.726v3.3c-2.014,2.235-5.59,2.792-10.884,2.012V262.25Z" transform="translate(-373.878 -222.578)" fill="#fda084"/>
        <path id="Path_111" data-name="Path 111" d="M379.515,251.479a45.013,45.013,0,0,0,.6,4.9c1,5.487,3.246,10.881,8.089,12.612,10.965,3.916,14.884-5.489,16.45-10.972.172-.607.327-1.286.464-2.009.249-1.306.442-2.764.593-4.231.179-1.781.3-3.583.372-5.167a7.742,7.742,0,0,0-4.96-7.6c-4.5-1.728-11.327-3.095-17.8.576a7.765,7.765,0,0,0-3.945,6.61C379.357,247.69,379.378,249.512,379.515,251.479Z" transform="translate(-374.999 -226.575)" fill="#ffc0ad"/>
        <path id="Path_112" data-name="Path 112" d="M379.495,249.483a45.013,45.013,0,0,0,.6,4.9c1,5.487,3.246,10.881,8.089,12.612,10.965,3.916,14.884-5.489,16.45-10.972.172-.607.327-1.286.464-2.009.249-1.306.442-2.764.593-4.231h-1.6c-.334,1.021-2.117,7.241-2.7,8.126-1.247-2.989-7.576-1-7.576-1l-.031.01a3.89,3.89,0,0,1-2.388-.01s-6.256-2.072-7.55.779c-.574-.889-2.628-7.228-3-7.9Zm13.1,8.773c7.157-.966,6.03,2.886,6.03,2.886a12,12,0,0,1-2.006,1.529,8.279,8.279,0,0,1-4.217,1.148c-1.1-.049-1.4.179-4.177-1.324a7.01,7.01,0,0,1-1.472-1.117h0v0C386.631,260.624,385.42,257.023,392.6,258.256Z" transform="translate(-374.979 -224.579)" fill="#01305a"/>
        <path id="Path_113" data-name="Path 113" d="M386.945,250.723c0,.795-.409,1.438-.914,1.438s-.914-.643-.914-1.438.41-1.438.914-1.438S386.945,249.928,386.945,250.723Z" transform="translate(-374.061 -224.611)" fill="#01305a"/>
        <path id="Path_114" data-name="Path 114" d="M396.21,250.7c0,.795-.41,1.438-.914,1.438s-.914-.643-.914-1.438.409-1.439.914-1.439S396.21,249.9,396.21,250.7Z" transform="translate(-372.547 -224.615)" fill="#01305a"/>
        <path id="Path_115" data-name="Path 115" d="M382.519,247.768s3-2.278,5.914-1.881l.144,1.517s-3.9.743-5.606,2.059A2.6,2.6,0,0,1,382.519,247.768Z" transform="translate(-374.487 -225.174)" fill="#01305a"/>
        <path id="Path_116" data-name="Path 116" d="M399.444,247.768s-3-2.278-5.913-1.881l-.144,1.517s3.9.743,5.608,2.059A2.605,2.605,0,0,0,399.444,247.768Z" transform="translate(-372.71 -225.174)" fill="#01305a"/>
        <g id="Group_708" data-name="Group 708" transform="translate(16.394 24.762)">
          <path id="Path_117" data-name="Path 117" d="M391.021,256.277a3.787,3.787,0,0,0,1.28-.269.354.354,0,0,0-.268-.655,2.124,2.124,0,0,1-1.418.134.383.383,0,0,1-.173-.329,53.47,53.47,0,0,1,.213-5.414.353.353,0,1,0-.7-.058,51.989,51.989,0,0,0-.213,5.546,1.08,1.08,0,0,0,.514.863A1.5,1.5,0,0,0,391.021,256.277Z" transform="translate(-389.705 -249.361)" fill="#fda084"/>
        </g>
        <path id="Path_118" data-name="Path 118" d="M390.715,257.533c-2.643,0-2.8,3.979-.165,4.121.1.006.2.008.3.008s.2,0,.3-.007c2.65-.128,2.5-4.122-.15-4.122Z" transform="translate(-373.484 -223.263)" fill="#fff"/>
        <path id="Path_119" data-name="Path 119" d="M405.714,251.778h-1.6c.177-1.609.43-4.442-.89-4.848-4.175-1.282,1.236-4.232-.649-5.7s-6.576-.842-9.836-.948a69.884,69.884,0,0,0-9.838.237c-1.283.293-.579,2.423-.109,4.074s-1.573,3.473-1.916,5.181a7.539,7.539,0,0,0,0,2.007h-1.336c-.158-2.078-.183-4.013-.154-5.582a7.767,7.767,0,0,1,3.942-6.61c6.473-3.671,13.3-2.3,17.8-.574a7.747,7.747,0,0,1,4.961,7.6C406.013,248.2,405.9,250,405.714,251.778Z" transform="translate(-374.999 -226.575)" fill="#01305a"/>
      </g>
      <g id="Group_711" data-name="Group 711" transform="translate(266.12 86.42)">
        <path id="Path_120" data-name="Path 120" d="M492.357,364.867c-1.986,7.754-7.545,13.635-16.069,17.009a40.715,40.715,0,0,1-6.3,1.906c.068-.087.131-.174.2-.262a30.317,30.317,0,0,0,3.347-5.914c5.625-2.042,12.016-6.067,14.042-13.966,1.946-7.593-1.192-18.954-8-28.939-5.4-7.913-17.643-21.581-39.061-24.228-18.7-2.312-30.847.529-41.562,3.036-9.109,2.129-17.713,4.139-28.241,2.3a125.606,125.606,0,0,1-18.9-5.051c-9.633-3.188-16-5.291-26.1-1.152-17.044,6.983-24.644,35.928-24.72,36.219l-4.79-1.224c.332-1.289,8.286-31.642,27.636-39.57,11.8-4.834,19.623-2.245,29.529,1.033a121.253,121.253,0,0,0,18.2,4.875c9.538,1.669,17.288-.143,26.261-2.243,11.119-2.6,23.724-5.546,43.3-3.126a58.635,58.635,0,0,1,25.327,9.325,63.188,63.188,0,0,1,17.212,17.023C491.343,343.193,494.678,355.819,492.357,364.867Z" transform="translate(-254.047 -302.359)" fill="#00528a"/>
        <g id="Group_710" data-name="Group 710" transform="translate(0 34.315)">
          <path id="Path_121" data-name="Path 121" d="M259.966,386.725l11.092-35.059a28.358,28.358,0,0,1,35.592-18.483h0a28.358,28.358,0,0,1,18.483,35.592L314.04,403.834Z" transform="translate(-259.966 -331.855)" fill="#5642ec"/>
        </g>
      </g>
      <g id="Group_713" data-name="Group 713" transform="translate(353.153 85.85)">
        <g id="Group_712" data-name="Group 712" transform="translate(0)">
          <path id="Path_122" data-name="Path 122" d="M334.777,308.558a40.415,40.415,0,0,1,2.878-5.185c.975-1.511,3.241-2.251,3.489-.439.2,1.43-.828,2.511-1.035,3.908,0,0,.5-.8,1.618-2.858,1.011-1.867,2.394-1.726,2.6-.314.194,1.336-.2,1.281-.527,2.292-.441,1.344-1.066,3.019-1.066,3.019a13.163,13.163,0,0,1,2.13-4.177c.755-1.021,1.507-2.155,2.623-.571.561.795-.179,2.957-.779,5.269,0,0,1.2-3.1,2.754-3.9,1.225-.629,1.853-.077,1.377,1.632a38.14,38.14,0,0,1-1.468,4.113c-.467,1.3-2.174,3.169-3.53,2.737s-1.648-1.379-2.572-1.445-2.4.016-3.032-.554a3.251,3.251,0,0,0-2.352-.736C336.835,311.318,334.718,309.958,334.777,308.558Z" transform="translate(-334.776 -301.869)" fill="#ffc0ad"/>
        </g>
      </g>
      <g id="Group_714" data-name="Group 714" transform="translate(449.149 87.182)">
        <path id="Path_123" data-name="Path 123" d="M417.29,310.519a40.316,40.316,0,0,1,2.045-5.566c.731-1.643,2.579-2.824,3.1-1.071.414,1.383-.155,2.71-.144,4.121,0,0,.373-.862,1.159-3.074.711-2,2.1-2.073,2.521-.71.4,1.289,0,1.3-.169,2.347-.228,1.395-.588,3.147-.588,3.147a13.129,13.129,0,0,1,1.462-4.455c.588-1.126,1.156-2.362,2.5-.969.676.7.278,2.949.041,5.326,0,0,.28-2.841,1.688-3.866,1.115-.811,2.254-.767,2.046.994a38.076,38.076,0,0,1-.819,4.289c-.259,1.361-1.66,3.467-3.065,3.249s-1.84-1.109-2.764-1.032-2.372.386-3.081-.08a3.257,3.257,0,0,0-2.437-.366C419.748,312.93,417.446,311.912,417.29,310.519Z" transform="translate(-417.29 -303.014)" fill="#ffc0ad"/>
      </g>
      <g id="Group_724" data-name="Group 724" transform="translate(0 153.486)">
        <g id="Group_721" data-name="Group 721" transform="translate(243.241 52.512)">
          <g id="Group_715" data-name="Group 715">
            <path id="Path_124" data-name="Path 124" d="M257.693,408.633a3.492,3.492,0,0,1-3.49,3.49H240.3v-6.98h13.9A3.49,3.49,0,0,1,257.693,408.633Z" transform="translate(-240.3 -405.143)" fill="#00528a"/>
          </g>
          <g id="Group_716" data-name="Group 716" transform="translate(0 24.819)">
            <path id="Path_125" data-name="Path 125" d="M257.693,429.966a3.488,3.488,0,0,1-3.49,3.49H240.3v-6.98h13.9A3.489,3.489,0,0,1,257.693,429.966Z" transform="translate(-240.3 -426.476)" fill="#00528a"/>
          </g>
          <g id="Group_718" data-name="Group 718" transform="translate(0 0)">
            <g id="Group_717" data-name="Group 717">
              <rect id="Rectangle_39" data-name="Rectangle 39" width="6.34" height="6.98" fill="#01305a"/>
            </g>
          </g>
          <g id="Group_720" data-name="Group 720" transform="translate(0 24.818)">
            <g id="Group_719" data-name="Group 719">
              <rect id="Rectangle_40" data-name="Rectangle 40" width="6.34" height="6.98" fill="#01305a"/>
            </g>
          </g>
        </g>
        <g id="Group_722" data-name="Group 722">
          <path id="Path_126" data-name="Path 126" d="M219.288,424.332l-.192,5.524c-57.626-2.022-102.318-6.224-132.828-12.492-26.165-5.371-42.551-12.28-50.1-21.112a19.238,19.238,0,0,1-4.8-15.337c1.166-9.5,9.61-16.514,25.137-20.908a30.137,30.137,0,0,0,1.187,5.416c-10.424,3-19.832,7.975-20.839,16.168a13.731,13.731,0,0,0,3.513,11.073c6.62,7.754,22.436,14.242,47,19.289C117.59,418.158,161.97,422.323,219.288,424.332Z" transform="translate(-31.221 -360.006)" fill="#00528a"/>
        </g>
        <g id="Group_723" data-name="Group 723" transform="translate(178.112 40.052)">
          <path id="Path_127" data-name="Path 127" d="M249.447,451.149H212.676a28.358,28.358,0,0,1-28.358-28.358h0a28.358,28.358,0,0,1,28.358-28.358h36.771Z" transform="translate(-184.318 -394.433)" fill="#5642ec"/>
        </g>
      </g>
    </g>
    <g id="Group_767" data-name="Group 767" transform="translate(90.813 66.663)">
      <g id="Group_729" data-name="Group 729" transform="translate(386.732 184.988)">
        <g id="Group_726" data-name="Group 726">
          <path id="Path_128" data-name="Path 128" d="M464.25,228.586V247.4a4.5,4.5,0,0,1-4.5,4.5H425.594l-10.31,3.7a1.311,1.311,0,0,1-1.666-1.708l3.9-10.071V228.586a4.505,4.505,0,0,1,4.506-4.5h37.723A4.5,4.5,0,0,1,464.25,228.586Z" transform="translate(-413.526 -224.083)" fill="#a4a0f9"/>
        </g>
        <g id="Group_728" data-name="Group 728" transform="translate(14.539 11.185)" style="mix-blend-mode: screen;isolation: isolate">
          <g id="Group_727" data-name="Group 727">
            <circle id="Ellipse_14" data-name="Ellipse 14" cx="3.258" cy="3.258" r="3.258" transform="translate(0 0)" fill="#ff7c78"/>
            <circle id="Ellipse_15" data-name="Ellipse 15" cx="3.258" cy="3.258" r="3.258" transform="translate(10.313)" fill="#ff7c78"/>
            <circle id="Ellipse_16" data-name="Ellipse 16" cx="3.258" cy="3.258" r="3.258" transform="translate(20.625)" fill="#ff7c78"/>
          </g>
        </g>
      </g>
      <g id="Group_747" data-name="Group 747" transform="translate(233.011 34.379)">
        <g id="Group_730" data-name="Group 730" transform="translate(31.97 32.943)">
          <path id="Path_129" data-name="Path 129" d="M308.874,130.633a7.691,7.691,0,1,1,7.691,7.69A7.7,7.7,0,0,1,308.874,130.633Zm2.413,0a5.278,5.278,0,1,0,5.278-5.278A5.284,5.284,0,0,0,311.287,130.633Z" transform="translate(-308.874 -122.942)" fill="#5642ec"/>
        </g>
        <g id="Group_731" data-name="Group 731" transform="translate(6.261)">
          <path id="Path_130" data-name="Path 130" d="M286.776,102.316a7.691,7.691,0,1,1,7.69,7.691A7.7,7.7,0,0,1,286.776,102.316Zm2.413,0a5.278,5.278,0,1,0,5.277-5.278A5.284,5.284,0,0,0,289.189,102.316Z" transform="translate(-286.776 -94.626)" fill="#5642ec"/>
        </g>
        <g id="Group_738" data-name="Group 738" transform="translate(0 36.767)">
          <g id="Group_734" data-name="Group 734" transform="translate(7.468)">
            <g id="Group_732" data-name="Group 732">
              <path id="Path_131" data-name="Path 131" d="M289.019,133.962a1.206,1.206,0,0,0,1.205-1.206v-5.32a1.206,1.206,0,1,0-2.412,0v5.32A1.206,1.206,0,0,0,289.019,133.962Z" transform="translate(-287.813 -126.229)" fill="#3b73ab"/>
            </g>
            <g id="Group_733" data-name="Group 733" transform="translate(0 9.311)">
              <path id="Path_132" data-name="Path 132" d="M289.019,141.964a1.206,1.206,0,0,0,1.205-1.205v-5.32a1.206,1.206,0,1,0-2.412,0v5.32A1.206,1.206,0,0,0,289.019,141.964Z" transform="translate(-287.813 -134.232)" fill="#3b73ab"/>
            </g>
          </g>
          <g id="Group_737" data-name="Group 737" transform="translate(0 7.315)">
            <g id="Group_735" data-name="Group 735">
              <path id="Path_133" data-name="Path 133" d="M282.6,134.93h4.779a1.206,1.206,0,0,0,0-2.413H282.6a1.206,1.206,0,0,0,0,2.413Z" transform="translate(-281.394 -132.517)" fill="#3b73ab"/>
            </g>
            <g id="Group_736" data-name="Group 736" transform="translate(10.155)">
              <path id="Path_134" data-name="Path 134" d="M291.329,134.93h4.779a1.206,1.206,0,0,0,0-2.413h-4.779a1.206,1.206,0,1,0,0,2.413Z" transform="translate(-290.123 -132.517)" fill="#3b73ab"/>
            </g>
          </g>
        </g>
        <g id="Group_746" data-name="Group 746" transform="translate(32.469 1.322)">
          <g id="Group_745" data-name="Group 745">
            <g id="Group_741" data-name="Group 741" transform="translate(7.468)">
              <g id="Group_739" data-name="Group 739">
                <path id="Path_135" data-name="Path 135" d="M316.928,103.5a1.207,1.207,0,0,0,1.206-1.206v-5.32a1.206,1.206,0,1,0-2.413,0v5.32A1.206,1.206,0,0,0,316.928,103.5Z" transform="translate(-315.722 -95.762)" fill="#00528a"/>
              </g>
              <g id="Group_740" data-name="Group 740" transform="translate(0 9.311)">
                <path id="Path_136" data-name="Path 136" d="M316.928,111.5a1.207,1.207,0,0,0,1.206-1.206v-5.319a1.206,1.206,0,1,0-2.413,0v5.319A1.206,1.206,0,0,0,316.928,111.5Z" transform="translate(-315.722 -103.765)" fill="#00528a"/>
              </g>
            </g>
            <g id="Group_744" data-name="Group 744" transform="translate(0 7.315)">
              <g id="Group_742" data-name="Group 742">
                <path id="Path_137" data-name="Path 137" d="M310.509,104.463h4.779a1.206,1.206,0,0,0,0-2.413h-4.779a1.206,1.206,0,0,0,0,2.413Z" transform="translate(-309.303 -102.05)" fill="#00528a"/>
              </g>
              <g id="Group_743" data-name="Group 743" transform="translate(10.156)">
                <path id="Path_138" data-name="Path 138" d="M319.239,104.463h4.778a1.206,1.206,0,0,0,0-2.413h-4.778a1.206,1.206,0,1,0,0,2.413Z" transform="translate(-318.033 -102.05)" fill="#00528a"/>
              </g>
            </g>
          </g>
        </g>
      </g>
      <g id="Group_766" data-name="Group 766">
        <g id="Group_749" data-name="Group 749" transform="translate(42.674 14.63)">
          <g id="Group_748" data-name="Group 748">
            <path id="Path_139" data-name="Path 139" d="M117.789,85.341a7.691,7.691,0,1,1,7.69,7.69A7.7,7.7,0,0,1,117.789,85.341Zm2.413,0a5.278,5.278,0,1,0,5.277-5.278A5.283,5.283,0,0,0,120.2,85.341Z" transform="translate(-117.789 -77.65)" fill="#5642ec"/>
          </g>
        </g>
        <g id="Group_750" data-name="Group 750" transform="translate(13.1 29.101)">
          <path id="Path_140" data-name="Path 140" d="M92.368,97.78a7.691,7.691,0,1,1,7.69,7.69A7.7,7.7,0,0,1,92.368,97.78Zm2.413,0a5.278,5.278,0,1,0,5.277-5.278A5.283,5.283,0,0,0,94.781,97.78Z" transform="translate(-92.368 -90.089)" fill="#3b73ab"/>
        </g>
        <g id="Group_757" data-name="Group 757" transform="translate(0 49.761)">
          <g id="Group_753" data-name="Group 753" transform="translate(7.468)">
            <g id="Group_751" data-name="Group 751">
              <path id="Path_141" data-name="Path 141" d="M88.733,115.58a1.207,1.207,0,0,0,1.206-1.206v-5.32a1.206,1.206,0,1,0-2.413,0v5.32A1.207,1.207,0,0,0,88.733,115.58Z" transform="translate(-87.527 -107.847)" fill="#5642ec"/>
            </g>
            <g id="Group_752" data-name="Group 752" transform="translate(0 9.311)">
              <path id="Path_142" data-name="Path 142" d="M88.733,123.582a1.206,1.206,0,0,0,1.206-1.206v-5.32a1.206,1.206,0,0,0-2.413,0v5.32A1.206,1.206,0,0,0,88.733,123.582Z" transform="translate(-87.527 -115.85)" fill="#5642ec"/>
            </g>
          </g>
          <g id="Group_756" data-name="Group 756" transform="translate(0 7.315)">
            <g id="Group_754" data-name="Group 754">
              <path id="Path_143" data-name="Path 143" d="M82.314,116.548h4.779a1.206,1.206,0,0,0,0-2.413H82.314a1.206,1.206,0,0,0,0,2.413Z" transform="translate(-81.108 -114.135)" fill="#5642ec"/>
            </g>
            <g id="Group_755" data-name="Group 755" transform="translate(10.156)">
              <path id="Path_144" data-name="Path 144" d="M91.044,116.548h4.779a1.206,1.206,0,0,0,0-2.413H91.044a1.206,1.206,0,0,0,0,2.413Z" transform="translate(-89.838 -114.135)" fill="#5642ec"/>
            </g>
          </g>
        </g>
        <g id="Group_765" data-name="Group 765" transform="translate(21.626)">
          <g id="Group_764" data-name="Group 764">
            <g id="Group_760" data-name="Group 760" transform="translate(7.468)">
              <g id="Group_758" data-name="Group 758">
                <path id="Path_145" data-name="Path 145" d="M107.322,72.808a1.208,1.208,0,0,0,1.206-1.206v-5.32a1.206,1.206,0,1,0-2.413,0V71.6A1.207,1.207,0,0,0,107.322,72.808Z" transform="translate(-106.116 -65.075)" fill="#00528a"/>
              </g>
              <g id="Group_759" data-name="Group 759" transform="translate(0 9.309)">
                <path id="Path_146" data-name="Path 146" d="M107.322,80.81a1.207,1.207,0,0,0,1.206-1.206v-5.32a1.206,1.206,0,0,0-2.413,0V79.6A1.206,1.206,0,0,0,107.322,80.81Z" transform="translate(-106.116 -73.077)" fill="#00528a"/>
              </g>
            </g>
            <g id="Group_763" data-name="Group 763" transform="translate(0 7.315)">
              <g id="Group_761" data-name="Group 761">
                <path id="Path_147" data-name="Path 147" d="M100.9,73.775h4.779a1.206,1.206,0,1,0,0-2.412H100.9a1.206,1.206,0,1,0,0,2.412Z" transform="translate(-99.697 -71.363)" fill="#00528a"/>
              </g>
              <g id="Group_762" data-name="Group 762" transform="translate(10.156)">
                <path id="Path_148" data-name="Path 148" d="M109.633,73.775h4.779a1.206,1.206,0,0,0,0-2.412h-4.779a1.206,1.206,0,1,0,0,2.412Z" transform="translate(-108.427 -71.363)" fill="#00528a"/>
              </g>
            </g>
          </g>
        </g>
      </g>
    </g>
  </g>
</svg>
