<svg xmlns="http://www.w3.org/2000/svg" width="12.832" height="14" viewBox="0 0 12.832 14">
  <path id="bookmark" d="M12.162,14A1.633,1.633,0,0,1,11,13.511L7.416,9.945,3.829,13.513a1.633,1.633,0,0,1-1.805.355A1.633,1.633,0,0,1,1,12.338V2.916A2.916,2.916,0,0,1,3.916,0h7a2.916,2.916,0,0,1,2.916,2.916v9.422a1.633,1.633,0,0,1-1.021,1.53,1.672,1.672,0,0,1-.649.129ZM3.916,1.166a1.75,1.75,0,0,0-1.75,1.75v9.422a.492.492,0,0,0,.838.35H3l4-3.978a.583.583,0,0,1,.822,0l4,3.977a.492.492,0,0,0,.838-.35V2.916a1.75,1.75,0,0,0-1.75-1.75Z" transform="translate(-1)" fill="#2ecc71"/>
</svg>
