<svg xmlns="http://www.w3.org/2000/svg" width="15.985" height="16" viewBox="0 0 15.985 16">
  <g id="comment" transform="translate(0.001 0.024)">
    <path id="Path_29" data-name="Path 29" d="M15.984,7.482A8,8,0,1,0,8,15.976h4.651a3.333,3.333,0,0,0,3.33-3.33Zm-1.332,5.163a2,2,0,0,1-2,2H8a6.687,6.687,0,0,1-4.979-2.226,6.6,6.6,0,0,1-1.649-5.2A6.689,6.689,0,0,1,7.14,1.379a7.036,7.036,0,0,1,.866-.055,6.607,6.607,0,0,1,4.248,1.532,6.687,6.687,0,0,1,2.4,4.69Z" transform="translate(0 0)" fill="#2c3e50"/>
    <path id="Path_30" data-name="Path 30" d="M7.666,8.332H10.33A.666.666,0,0,0,10.33,7H7.666a.666.666,0,1,0,0,1.332Z" transform="translate(-2.338 -2.346)" fill="#2c3e50"/>
    <path id="Path_31" data-name="Path 31" d="M12.994,11H7.666a.666.666,0,1,0,0,1.332h5.328a.666.666,0,0,0,0-1.332Z" transform="translate(-2.338 -3.682)" fill="#2c3e50"/>
    <path id="Path_32" data-name="Path 32" d="M12.994,15H7.666a.666.666,0,1,0,0,1.332h5.328a.666.666,0,0,0,0-1.332Z" transform="translate(-2.338 -5.018)" fill="#2c3e50"/>
  </g>
</svg>
