<svg id="Component_3_1" data-name="Component 3 – 1" xmlns="http://www.w3.org/2000/svg" width="20" height="20" viewBox="0 0 20 20">
  <rect id="Rectangle_13" data-name="Rectangle 13" width="20" height="20" fill="none"/>
  <path id="playing-cards" d="M16.529,5.667l-2.37,7.223a3.434,3.434,0,0,1-2.05,2.222A4.84,4.84,0,0,0,12.5,13.2V6.253A4.867,4.867,0,0,0,7.639,1.392H6.483A3.484,3.484,0,0,1,10.264.156l3.949,1.213A3.487,3.487,0,0,1,16.529,5.667Zm-5.417.586V13.2A3.477,3.477,0,0,1,7.639,16.67H3.472A3.477,3.477,0,0,1,0,13.2V6.253A3.477,3.477,0,0,1,3.472,2.781H7.639a3.477,3.477,0,0,1,3.472,3.472ZM8.334,9.031a1.389,1.389,0,1,0-2.778,0,1.389,1.389,0,1,0-2.778,0c0,1.007,1.072,2.355,1.885,3.04a1.383,1.383,0,0,0,1.786,0C7.262,11.386,8.334,10.038,8.334,9.031Z" transform="translate(1.667 1.658)" fill="#fff"/>
</svg>
