<svg xmlns="http://www.w3.org/2000/svg" width="10.123" height="10" viewBox="0 0 10.123 10">
  <g id="Group_842" data-name="Group 842" transform="translate(-5.104 -4.999)">
    <path id="Path_5" data-name="Path 5" d="M12.815,15a.714.714,0,0,1-.5-1.221L15.6,10.507a.714.714,0,0,0,0-1.014L12.315,6.221a.715.715,0,0,1,1.007-1.014L16.6,8.485a2.143,2.143,0,0,1,0,3.028l-3.278,3.278A.714.714,0,0,1,12.815,15Z" transform="translate(-2)" fill="#fff"/>
    <path id="Path_6" data-name="Path 6" d="M5.815,15a.714.714,0,0,1-.5-1.221L9.094,10,5.315,6.221A.715.715,0,0,1,6.323,5.207l4.285,4.285a.714.714,0,0,1,0,1.014L6.323,14.792A.714.714,0,0,1,5.815,15Z" fill="#fff"/>
  </g>
</svg>
