<svg xmlns="http://www.w3.org/2000/svg" width="32" height="32" viewBox="0 0 32 32">
  <path id="poker-chip" d="M24,16a8,8,0,1,0-8,8A8,8,0,0,0,24,16Zm-8,5.333L12,16l4-5.333L20,16ZM21.855,1.124a16.072,16.072,0,0,1,9.021,9.021l-5.129,1.539a10.731,10.731,0,0,0-5.431-5.431ZM12.7.347a15.919,15.919,0,0,1,6.608,0L17.76,5.491a9.923,9.923,0,0,0-3.52,0ZM26.509,17.76a9.923,9.923,0,0,0,0-3.52L31.653,12.7a15.919,15.919,0,0,1,0,6.608Zm-21.019,0L.347,19.3a15.919,15.919,0,0,1,0-6.608L5.491,14.24a9.923,9.923,0,0,0,0,3.52ZM19.3,31.653a15.919,15.919,0,0,1-6.608,0l1.544-5.144a9.923,9.923,0,0,0,3.52,0Zm11.572-9.8a16.072,16.072,0,0,1-9.021,9.021l-1.539-5.129a10.731,10.731,0,0,0,5.431-5.431ZM1.125,10.145a16.065,16.065,0,0,1,9.02-9.021l1.539,5.129a10.723,10.723,0,0,0-5.429,5.431Zm9.02,20.731a16.065,16.065,0,0,1-9.02-9.021l5.129-1.539a10.723,10.723,0,0,0,5.429,5.431Z" fill="#5642ec"/>
</svg>
